<svg width="21" height="13" viewBox="0 0 21 13" fill="none" xmlns="http://www.w3.org/2000/svg">
<path d="M3.21817 12.4235L10.5098 4.76307L17.8014 12.4235C17.9754 12.6062 18.182 12.7512 18.4093 12.8502C18.6366 12.9491 18.8803 13 19.1263 13C19.3724 13 19.616 12.9491 19.8433 12.8502C20.0707 12.7512 20.2772 12.6062 20.4512 12.4235C20.6252 12.2407 20.7632 12.0237 20.8574 11.7848C20.9515 11.546 21 11.2901 21 11.0316C21 10.7731 20.9515 10.5171 20.8574 10.2783C20.7632 10.0394 20.6252 9.82244 20.4512 9.63965L11.8253 0.577492C11.0924 -0.192495 9.90842 -0.192495 9.1755 0.577492L0.549586 9.63965C0.37537 9.82231 0.23715 10.0393 0.142845 10.2781C0.0485403 10.5169 -1.71266e-06 10.773 -1.73526e-06 11.0316C-1.75787e-06 11.2901 0.0485402 11.5462 0.142845 11.785C0.23715 12.0238 0.37537 12.2408 0.549585 12.4235C1.28251 13.1737 2.48525 13.1934 3.21817 12.4235Z" fill="#333333"/>
</svg>
