<svg id="Слой_1" data-name="Слой 1" xmlns="http://www.w3.org/2000/svg" viewBox="0 0 21 13"><defs><style>.cls-1{fill:#333;}</style></defs><title>arrow-down</title><path class="cls-1" d="M17.78.58,10.49,8.24,3.2.58A1.87,1.87,0,0,0,2.59.15a1.79,1.79,0,0,0-1.43,0A1.87,1.87,0,0,0,.55.58a2,2,0,0,0-.41.64,2.06,2.06,0,0,0,0,1.51,2,2,0,0,0,.41.64l8.63,9.06a1.81,1.81,0,0,0,2.65,0l8.63-9.06a2,2,0,0,0,.41-.64,2.06,2.06,0,0,0,0-1.51,2,2,0,0,0-.41-.64A1.85,1.85,0,0,0,17.78.58Z" transform="translate(0 0)"/></svg>